<svg width="185" height="60" viewBox="0 0 185 60" fill="none" xmlns="http://www.w3.org/2000/svg">
<path d="M81.9807 21.9073C82.2672 22.1979 82.6101 22.4265 82.9881 22.5791C83.3662 22.7317 83.7715 22.8051 84.1789 22.7946C84.586 22.8049 84.991 22.7315 85.3687 22.5789C85.7465 22.4263 86.0891 22.1978 86.3753 21.9073C86.6621 21.6173 86.8883 21.2729 87.0409 20.8942C87.1935 20.5155 87.2693 20.1102 87.264 19.7019C87.2741 19.2934 87.2004 18.8873 87.0475 18.5086C86.8946 18.1298 86.6659 17.7866 86.3753 17.5001C86.0949 17.1992 85.7543 16.961 85.3759 16.8009C84.9974 16.6408 84.5896 16.5625 84.1789 16.571C83.7679 16.5622 83.3597 16.6404 82.9809 16.8005C82.6022 16.9606 82.2613 17.199 81.9807 17.5001C81.6904 17.7867 81.4618 18.13 81.3093 18.5087C81.1567 18.8875 81.0834 19.2936 81.0937 19.7019C81.0881 20.1101 81.1636 20.5154 81.3159 20.894C81.4682 21.2727 81.6942 21.6172 81.9807 21.9073Z" fill="#E5E5E5"/>
<path d="M81.4365 24.9095C81.384 24.9666 81.3434 25.0336 81.3173 25.1067C81.2911 25.1798 81.2798 25.2574 81.2841 25.3349V43.1168C81.2797 43.1943 81.2909 43.2719 81.3171 43.345C81.3433 43.4181 81.3839 43.4852 81.4365 43.5422C81.4931 43.5954 81.5599 43.6366 81.6329 43.6632C81.7058 43.6897 81.7834 43.7012 81.8609 43.6968H86.4877C86.5652 43.7012 86.6428 43.6897 86.7157 43.6632C86.7887 43.6366 86.8555 43.5954 86.9121 43.5422C86.9654 43.4856 87.0065 43.4186 87.0331 43.3455C87.0596 43.2723 87.0709 43.1945 87.0663 43.1168V25.3349C87.0707 25.2573 87.0593 25.1795 87.0328 25.1064C87.0063 25.0332 86.9652 24.9662 86.9121 24.9095C86.8552 24.8568 86.7883 24.8162 86.7154 24.79C86.6425 24.7637 86.565 24.7524 86.4877 24.7568H81.8645C81.7872 24.7524 81.7098 24.7637 81.6369 24.79C81.564 24.8162 81.4971 24.8568 81.4401 24.9095" fill="#E5E5E5"/>
<path fill-rule="evenodd" clip-rule="evenodd" d="M130.501 30.1537C131.239 29.5801 132.151 29.2795 133.084 29.3028C133.994 29.2797 134.882 29.5812 135.591 30.1537C136.285 30.6943 136.722 31.4925 136.902 32.5482H129.112C129.319 31.4937 129.782 30.6955 130.501 30.1537ZM141.761 35.6809C141.941 35.2943 142.03 34.6761 142.029 33.8264C142.046 32.183 141.662 30.5604 140.912 29.0991C140.192 27.6844 139.098 26.4946 137.751 25.6591C136.335 24.7958 134.703 24.3543 133.046 24.3864C131.324 24.3655 129.63 24.8203 128.149 25.7009C126.697 26.5379 125.497 27.7529 124.677 29.2173C123.85 30.7338 123.425 32.438 123.444 34.1664C123.424 35.8989 123.862 37.6058 124.714 39.1137C125.552 40.5994 126.778 41.8287 128.259 42.67C129.851 43.5598 131.648 44.0138 133.47 43.9864C134.775 43.9987 136.07 43.7516 137.279 43.2591C138.476 42.7516 139.563 42.0162 140.48 41.0937C140.548 41.0358 140.603 40.9649 140.643 40.8853C140.683 40.8057 140.707 40.7189 140.712 40.63C140.714 40.5584 140.701 40.4872 140.675 40.4206C140.648 40.3541 140.609 40.2936 140.558 40.2428L138.563 38.3118C138.457 38.1819 138.305 38.0984 138.139 38.0791C137.983 38.0789 137.832 38.1336 137.713 38.2337C137.139 38.6129 136.517 38.912 135.863 39.1228C135.271 39.281 134.661 39.3592 134.049 39.3555C132.765 39.3555 131.698 39.0979 130.849 38.5828C130.02 38.0315 129.429 37.1877 129.192 36.2191H140.644C141.209 36.2191 141.583 36.0373 141.763 35.6737" fill="#E5E5E5"/>
<path fill-rule="evenodd" clip-rule="evenodd" d="M153.122 29.3033C152.189 29.2805 151.277 29.581 150.539 30.1542C149.814 30.6948 149.351 31.493 149.152 32.5488H156.94C156.76 31.4942 156.323 30.696 155.629 30.1542C154.92 29.5818 154.032 29.2802 153.122 29.3033ZM162.069 33.827C162.069 34.6754 161.979 35.2936 161.799 35.6815C161.617 36.0451 161.246 36.227 160.682 36.227H149.23C149.466 37.1955 150.057 38.0394 150.886 38.5906C151.732 39.1045 152.799 39.3621 154.087 39.3633C154.699 39.3673 155.309 39.289 155.901 39.1306C156.555 38.9194 157.178 38.6203 157.752 38.2415C157.871 38.1412 158.022 38.0864 158.177 38.087C158.343 38.1059 158.496 38.1894 158.601 38.3197L160.596 40.2506C160.647 40.3012 160.687 40.3616 160.713 40.4282C160.74 40.4948 160.753 40.5662 160.751 40.6379C160.745 40.7268 160.722 40.8138 160.682 40.8934C160.642 40.9731 160.586 41.0439 160.518 41.1015C159.603 42.0207 158.519 42.7535 157.326 43.2597C156.117 43.7519 154.822 43.9991 153.517 43.987C151.697 44.014 149.901 43.5607 148.31 42.6724C146.829 41.83 145.604 40.601 144.764 39.116C143.914 37.6077 143.476 35.9011 143.495 34.1688C143.476 32.4404 143.901 30.7362 144.728 29.2197C145.544 27.7596 146.737 26.5468 148.181 25.7088C149.662 24.8282 151.357 24.3734 153.078 24.3942C154.735 24.362 156.367 24.8034 157.783 25.667C159.131 26.5024 160.224 27.6922 160.945 29.107C161.696 30.5679 162.08 32.1906 162.064 33.8342" fill="#E5E5E5"/>
<path fill-rule="evenodd" clip-rule="evenodd" d="M176.588 37.4605C175.79 38.286 174.774 38.6981 173.541 38.6969C172.282 38.6969 171.255 38.2848 170.458 37.4605C169.688 36.6351 169.302 35.5654 169.301 34.2514C169.301 32.9642 169.686 31.8823 170.458 31.006C170.846 30.5759 171.323 30.2355 171.855 30.0086C172.388 29.7816 172.963 29.6734 173.541 29.6914C174.11 29.6743 174.676 29.779 175.202 29.9984C175.727 30.2179 176.2 30.5471 176.588 30.9642C177.409 31.8126 177.82 32.9078 177.821 34.2496C177.821 35.5648 177.41 36.6345 176.588 37.4587V37.4605ZM178.901 25.7078C177.504 24.829 175.884 24.3725 174.236 24.3933C172.025 24.3933 170.212 25.2951 168.795 27.0987L168.601 25.3605C168.55 24.9739 168.357 24.7805 168.022 24.7805H164.093C164.016 24.7761 163.938 24.7876 163.865 24.8141C163.792 24.8407 163.726 24.8818 163.669 24.9351C163.616 24.992 163.576 25.059 163.549 25.1321C163.523 25.2053 163.512 25.283 163.517 25.3605V50.486C163.512 50.5638 163.524 50.6416 163.55 50.715C163.576 50.7884 163.617 50.8558 163.669 50.9133C163.726 50.9661 163.793 51.0071 163.866 51.0336C163.938 51.0601 164.016 51.0718 164.093 51.0678H168.72C168.798 51.0721 168.875 51.0606 168.948 51.034C169.021 51.0075 169.088 50.9664 169.145 50.9133C169.198 50.8562 169.239 50.7889 169.265 50.7154C169.292 50.642 169.303 50.5639 169.299 50.486V42.0223C170.56 43.3326 172.206 43.9878 174.236 43.9878C175.879 44.0104 177.495 43.5694 178.901 42.7151C180.292 41.8628 181.426 40.6465 182.18 39.1969C182.98 37.6859 183.391 35.9984 183.375 34.2878C183.396 32.5522 182.986 30.8387 182.18 29.3023C181.443 27.8208 180.307 26.5756 178.901 25.7078Z" fill="#E5E5E5"/>
<path d="M101.053 24.757C101.131 24.7526 101.208 24.7639 101.281 24.7902C101.354 24.8164 101.421 24.857 101.478 24.9097C101.531 24.9664 101.572 25.0334 101.598 25.1065C101.625 25.1797 101.636 25.2575 101.632 25.3351V28.8533C101.636 28.9307 101.625 29.0083 101.599 29.0812C101.572 29.154 101.531 29.2207 101.478 29.277C101.421 29.3308 101.355 29.3724 101.282 29.3993C101.209 29.4262 101.131 29.4378 101.053 29.4333H97.97V43.117C97.9743 43.1948 97.9626 43.2727 97.9358 43.3458C97.909 43.419 97.8675 43.4859 97.814 43.5424C97.7574 43.5956 97.6906 43.6368 97.6176 43.6633C97.5447 43.6899 97.4671 43.7013 97.3896 43.697H92.7628C92.6853 43.7013 92.6077 43.6899 92.5348 43.6633C92.4618 43.6368 92.395 43.5956 92.3384 43.5424C92.2851 43.4858 92.244 43.4188 92.2174 43.3457C92.1909 43.2725 92.1796 43.1947 92.1842 43.117V29.4424H89.1009C89.0232 29.4469 88.9455 29.4353 88.8725 29.4084C88.7995 29.3815 88.7328 29.3399 88.6765 29.286C88.6236 29.2295 88.5827 29.1628 88.5562 29.09C88.5297 29.0172 88.5182 28.9398 88.5223 28.8624V25.3442C88.5183 25.2666 88.5299 25.1889 88.5564 25.1159C88.5829 25.0428 88.6237 24.9758 88.6765 24.9188C88.7334 24.8661 88.8003 24.8255 88.8732 24.7993C88.9461 24.773 89.0235 24.7617 89.1009 24.766H92.1842V19.546C92.1798 19.4684 92.1912 19.3906 92.2177 19.3175C92.2442 19.2443 92.2853 19.1773 92.3384 19.1206C92.3951 19.0676 92.462 19.0267 92.5349 19.0005C92.6079 18.9742 92.6854 18.9631 92.7628 18.9679H97.3969C97.4743 18.9631 97.5518 18.9742 97.6248 19.0005C97.6977 19.0267 97.7646 19.0676 97.8213 19.1206C97.8747 19.1772 97.9161 19.2441 97.9429 19.3172C97.9697 19.3904 97.9814 19.4682 97.9773 19.546V24.766L101.053 24.757Z" fill="#E5E5E5"/>
<path fill-rule="evenodd" clip-rule="evenodd" d="M69.9794 38.3995C71.162 38.3995 72.1003 38.1291 72.7943 37.5885C73.4884 37.0479 73.8354 36.2358 73.8354 35.1522C73.8354 34.0952 73.4884 33.3225 72.7943 32.834C72.099 32.3176 71.1607 32.0601 69.9794 32.0613H65.6573V38.3995H69.9794ZM72.2157 24.3995C72.2157 22.751 71.2 21.9261 69.1687 21.9249H65.6573V27.1049H69.165C70.1154 27.1049 70.8627 26.8867 71.4014 26.4485C71.9419 25.9831 72.2121 25.3001 72.2121 24.3995H72.2157ZM74.5246 29.2322C75.97 29.6235 77.2616 30.4482 78.2264 31.5958C79.2783 32.7727 79.8438 34.3069 79.808 35.8867C79.808 38.4904 78.9725 40.4492 77.3014 41.7631C75.6558 43.0504 73.1371 43.6946 69.7454 43.6958H60.2615C60.184 43.7002 60.1064 43.6888 60.0334 43.6622C59.9605 43.6356 59.8937 43.5945 59.8371 43.5413C59.7841 43.4845 59.7433 43.4175 59.7171 43.3443C59.6909 43.2711 59.6799 43.1934 59.6847 43.1158V17.2176C59.68 17.1401 59.691 17.0623 59.7172 16.9892C59.7434 16.9161 59.7842 16.849 59.8371 16.7922C59.8937 16.739 59.9605 16.6978 60.0334 16.6712C60.1064 16.6447 60.184 16.6332 60.2615 16.6376H69.7092C71.402 16.6376 72.853 16.9467 74.0621 17.5649C75.2152 18.1088 76.1815 18.9832 76.8389 20.0776C77.4886 21.1484 77.8248 22.3808 77.8093 23.634C77.8371 24.876 77.5017 26.099 76.8444 27.1522C76.2277 28.1558 75.4563 28.8516 74.53 29.2395" fill="#E5E5E5"/>
<path d="M125.56 43.4977C125.562 43.3722 125.521 43.2499 125.444 43.1504L114.709 28.6413L125.071 17.4595C125.176 17.3721 125.245 17.2481 125.263 17.1122C125.263 17.0622 125.249 17.0131 125.222 16.9713C125.194 16.9295 125.155 16.8969 125.109 16.8777C125.061 16.8365 125.006 16.8052 124.946 16.7856C124.886 16.7659 124.823 16.7583 124.76 16.7631H119.524C119.399 16.7625 119.275 16.7899 119.162 16.8434C119.049 16.8968 118.949 16.975 118.869 17.0722L108.934 27.8686V17.345C108.938 17.2671 108.926 17.1893 108.9 17.1161C108.873 17.043 108.831 16.9761 108.778 16.9195C108.722 16.8659 108.655 16.8244 108.583 16.7975C108.51 16.7706 108.433 16.7589 108.355 16.7631H103.721C103.644 16.7587 103.566 16.7702 103.493 16.7971C103.42 16.824 103.353 16.8657 103.297 16.9195C103.244 16.9761 103.202 17.0431 103.176 17.1163C103.149 17.1894 103.138 17.2673 103.143 17.345V43.2595C103.138 43.3372 103.149 43.4151 103.176 43.4883C103.202 43.5614 103.243 43.6284 103.297 43.685C103.353 43.7385 103.42 43.7798 103.493 43.8064C103.566 43.8329 103.644 43.8442 103.721 43.8395H108.348C108.425 43.8441 108.503 43.8327 108.575 43.8061C108.648 43.7796 108.714 43.7383 108.771 43.685C108.824 43.6285 108.866 43.5617 108.893 43.4885C108.92 43.4153 108.931 43.3374 108.927 43.2595V34.8959L111.201 32.4231L119.43 43.4904C119.505 43.6042 119.608 43.6962 119.73 43.7571C119.852 43.8181 119.987 43.8459 120.123 43.8377H125.098C125.406 43.8377 125.56 43.7231 125.56 43.4904" fill="#E5E5E5"/>
<path fill-rule="evenodd" clip-rule="evenodd" d="M48.1147 18.5673V21.2128C48.1147 21.4682 48.0477 21.7191 47.9204 21.9402C47.793 22.1614 47.6098 22.3451 47.3892 22.4728L38.8865 27.3928L46.4805 31.7746C46.9771 32.062 47.3895 32.4755 47.676 32.9734C47.9626 33.4713 48.1132 34.0361 48.1129 34.611V41.6601C48.1136 42.2352 47.963 42.8004 47.6765 43.2986C47.3899 43.7969 46.9774 44.2107 46.4805 44.4982L26.5023 55.9873C26.006 56.2746 25.4431 56.4258 24.87 56.4258C24.2969 56.4258 23.7339 56.2746 23.2376 55.9873L16.7082 52.2037C16.5979 52.1399 16.5062 52.0481 16.4425 51.9375C16.3787 51.8269 16.3452 51.7014 16.3452 51.5737C16.3452 51.446 16.3787 51.3205 16.4425 51.2099C16.5062 51.0993 16.5979 51.0075 16.7082 50.9437L38.2915 38.491C38.3469 38.4591 38.393 38.4132 38.425 38.3578C38.457 38.3024 38.4739 38.2395 38.4739 38.1755C38.4739 38.1115 38.457 38.0486 38.425 37.9932C38.393 37.9378 38.3469 37.8919 38.2915 37.8601L30.2785 33.2201C30.0579 33.0924 29.8077 33.0252 29.553 33.0252C29.2983 33.0252 29.0481 33.0924 28.8275 33.2201L6.89233 45.8782C6.7269 45.974 6.53924 46.0244 6.34822 46.0244C6.15719 46.0244 5.96953 45.974 5.8041 45.8782L3.32292 44.4528C2.82349 44.1663 2.40847 43.7526 2.1199 43.2535C1.83133 42.7544 1.67946 42.1878 1.67969 41.611V38.7255C1.67957 38.5339 1.72979 38.3456 1.82531 38.1797C1.92083 38.0137 2.05827 37.8759 2.22381 37.7801L33.6629 19.6764C33.7183 19.6446 33.7643 19.5986 33.7964 19.5432C33.8284 19.4879 33.8452 19.425 33.8452 19.361C33.8452 19.2969 33.8284 19.2341 33.7964 19.1787C33.7643 19.1233 33.7183 19.0774 33.6629 19.0455L25.6372 14.391C25.4166 14.2633 25.1664 14.1961 24.9117 14.1961C24.657 14.1961 24.4068 14.2633 24.1862 14.391L2.78425 26.7364C2.67388 26.8003 2.54867 26.8339 2.42123 26.8339C2.29379 26.8338 2.16861 26.8001 2.05829 26.7361C1.94797 26.6722 1.85641 26.5802 1.79281 26.4695C1.72921 26.3588 1.69582 26.2333 1.69601 26.1055V18.5328C1.69624 17.9567 1.84814 17.391 2.13635 16.8926C2.42456 16.3943 2.83887 15.981 3.33743 15.6946L23.3047 4.20733C23.8 3.92177 24.3613 3.77148 24.9326 3.77148C25.5039 3.77148 26.0652 3.92177 26.5604 4.20733L46.4896 15.7291C46.9851 16.0176 47.3962 16.4318 47.6814 16.93C47.9667 17.4282 48.1161 17.9929 48.1147 18.5673Z" fill="#E5E5E5"/>
</svg>
