<svg width="19" height="18" viewBox="0 0 19 18" fill="none" xmlns="http://www.w3.org/2000/svg">
<path d="M9.5 0C11.9453 0 12.2504 0.00899995 13.2098 0.0539999C14.1683 0.0989999 14.8208 0.2493 15.395 0.4725C15.989 0.7011 16.4894 1.0107 16.9898 1.5102C17.4474 1.96011 17.8016 2.50433 18.0275 3.105C18.2498 3.6783 18.401 4.3317 18.446 5.2902C18.4883 6.2496 18.5 6.5547 18.5 9C18.5 11.4453 18.491 11.7504 18.446 12.7098C18.401 13.6683 18.2498 14.3208 18.0275 14.895C17.8022 15.496 17.448 16.0404 16.9898 16.4898C16.5398 16.9473 15.9956 17.3014 15.395 17.5275C14.8217 17.7498 14.1683 17.901 13.2098 17.946C12.2504 17.9883 11.9453 18 9.5 18C7.0547 18 6.7496 17.991 5.7902 17.946C4.8317 17.901 4.1792 17.7498 3.605 17.5275C3.00409 17.302 2.45977 16.9478 2.0102 16.4898C1.55247 16.04 1.19834 15.4957 0.9725 14.895C0.7493 14.3217 0.599 13.6683 0.554 12.7098C0.5117 11.7504 0.5 11.4453 0.5 9C0.5 6.5547 0.509 6.2496 0.554 5.2902C0.599 4.3308 0.7493 3.6792 0.9725 3.105C1.19771 2.50396 1.55192 1.95959 2.0102 1.5102C2.4599 1.05231 3.00419 0.698156 3.605 0.4725C4.1792 0.2493 4.8308 0.0989999 5.7902 0.0539999C6.7496 0.0116999 7.0547 0 9.5 0ZM9.5 4.5C8.30653 4.5 7.16193 4.97411 6.31802 5.81802C5.47411 6.66193 5 7.80653 5 9C5 10.1935 5.47411 11.3381 6.31802 12.182C7.16193 13.0259 8.30653 13.5 9.5 13.5C10.6935 13.5 11.8381 13.0259 12.682 12.182C13.5259 11.3381 14 10.1935 14 9C14 7.80653 13.5259 6.66193 12.682 5.81802C11.8381 4.97411 10.6935 4.5 9.5 4.5ZM15.35 4.275C15.35 3.97663 15.2315 3.69048 15.0205 3.4795C14.8095 3.26853 14.5234 3.15 14.225 3.15C13.9266 3.15 13.6405 3.26853 13.4295 3.4795C13.2185 3.69048 13.1 3.97663 13.1 4.275C13.1 4.57337 13.2185 4.85952 13.4295 5.0705C13.6405 5.28147 13.9266 5.4 14.225 5.4C14.5234 5.4 14.8095 5.28147 15.0205 5.0705C15.2315 4.85952 15.35 4.57337 15.35 4.275ZM9.5 6.3C10.2161 6.3 10.9028 6.58446 11.4092 7.09081C11.9155 7.59716 12.2 8.28392 12.2 9C12.2 9.71608 11.9155 10.4028 11.4092 10.9092C10.9028 11.4155 10.2161 11.7 9.5 11.7C8.78392 11.7 8.09716 11.4155 7.59081 10.9092C7.08446 10.4028 6.8 9.71608 6.8 9C6.8 8.28392 7.08446 7.59716 7.59081 7.09081C8.09716 6.58446 8.78392 6.3 9.5 6.3Z" fill="#707076"/>
</svg>
