<svg width="25" height="24" viewBox="0 0 25 24" fill="none" xmlns="http://www.w3.org/2000/svg">
<g clip-path="url(#clip0_22937_99201)">
<path d="M4.5 3H20.5C20.7652 3 21.0196 3.10536 21.2071 3.29289C21.3946 3.48043 21.5 3.73478 21.5 4V20C21.5 20.2652 21.3946 20.5196 21.2071 20.7071C21.0196 20.8946 20.7652 21 20.5 21H4.5C4.23478 21 3.98043 20.8946 3.79289 20.7071C3.60536 20.5196 3.5 20.2652 3.5 20V4C3.5 3.73478 3.60536 3.48043 3.79289 3.29289C3.98043 3.10536 4.23478 3 4.5 3ZM17.8 15.94C17.7 15.89 17.65 15.74 17.65 15.639V8.006C17.65 7.906 17.7 7.756 17.8 7.655L18.755 6.55V6.5H15.34L12.78 12.978L9.866 6.5H6.352V6.55L7.255 7.806C7.456 8.006 7.506 8.308 7.506 8.559V14.082C7.556 14.384 7.506 14.735 7.356 15.036L6 16.894V16.944H9.616V16.894L8.26 15.087C8.11 14.785 8.059 14.484 8.11 14.133V9.11C8.16 9.21 8.21 9.21 8.26 9.411L11.674 17.044H11.724L15.04 8.76C14.99 9.06 14.99 9.412 14.99 9.664V15.589C14.99 15.739 14.94 15.839 14.84 15.94L13.835 16.894V16.944H18.756V16.894L17.802 15.94H17.8Z" fill="#707076"/>
</g>
<defs>
<clipPath id="clip0_22937_99201">
<rect width="24" height="24" fill="white" transform="translate(0.5)"/>
</clipPath>
</defs>
</svg>
