<svg xmlns="http://www.w3.org/2000/svg" width="33" height="34" fill="none" viewBox="0 0 33 34">
  <path fill="#000" d="M25.558 11.051h-2.92a1.183 1.183 0 0 1-.886-.396l-1.188-1.33a.929.929 0 0 0-1.391 0l-1.023 1.138a1.767 1.767 0 0 1-1.314.588H.886A16.643 16.643 0 0 0 0 15.127h15.081a.98.98 0 0 0 .704-.297l1.408-1.463a.919.919 0 0 1 .671-.286h.055a.935.935 0 0 1 .698.313l1.183 1.331a1.194 1.194 0 0 0 .886.402H33a16.642 16.642 0 0 0-.869-4.076h-6.6.027ZM9.13 23.69a.979.979 0 0 0 .699-.297l1.408-1.463a.935.935 0 0 1 .67-.286h.056a.934.934 0 0 1 .687.314l1.183 1.33a1.178 1.178 0 0 0 .89.402h16.693a16.35 16.35 0 0 0 1.359-4.114H16.759a1.193 1.193 0 0 1-.891-.396l-1.183-1.336a.929.929 0 0 0-1.391 0l-1.018 1.144a1.748 1.748 0 0 1-1.309.588H.226a16.352 16.352 0 0 0 1.358 4.114H9.13ZM20.966 6.613a.957.957 0 0 0 .699-.297L23.1 4.842a.929.929 0 0 1 .671-.28h.055a.93.93 0 0 1 .699.307l1.182 1.337a1.192 1.192 0 0 0 .891.396h3.174a16.605 16.605 0 0 0-26.516.01h17.71Zm-6.375 21.153h-4.34a1.193 1.193 0 0 1-.901-.396l-1.183-1.336a.94.94 0 0 0-1.391 0l-1.018 1.144a1.748 1.748 0 0 1-1.309.588H4.4a16.589 16.589 0 0 0 24.2 0H14.592Z"/>
</svg>
