<svg width="256" height="256" viewBox="0 0 256 256" fill="none" xmlns="http://www.w3.org/2000/svg">
<rect width="256" height="256" rx="8" fill="#FBE460"/>
<g clip-path="url(#clip0_1273_10386)">
<path d="M129.144 153.807C143 153.807 154.228 142.573 154.228 128.724C154.228 114.874 142.994 103.634 129.144 103.634C115.295 103.634 104.055 114.868 104.055 128.724C104.055 142.58 115.289 153.807 129.144 153.807Z" fill="#1C1D1E"/>
<path fill-rule="evenodd" clip-rule="evenodd" d="M183.698 77.5429V122.893H181.587C170.429 105.127 150.666 93.3125 128.135 93.3125C104.104 93.3125 82.1845 107.424 71.799 127.997H31.9922V127.423C44.4191 86.0975 82.7651 56 128.135 56C159.387 56 177.287 71.1317 183.698 77.5429Z" fill="#1C1D1E"/>
<path fill-rule="evenodd" clip-rule="evenodd" d="M223.55 127.997V128.578C211.123 169.903 172.777 200 127.407 200C96.1553 200 78.2549 184.869 71.8438 178.457V133.101H73.9489C85.1063 150.873 104.876 162.688 127.407 162.688C151.438 162.688 173.358 148.57 183.743 127.997H223.55Z" fill="#1C1D1E"/>
</g>
<defs>
<clipPath id="clip0_1273_10386">
<rect width="191.545" height="144" fill="white" transform="translate(32 56)"/>
</clipPath>
</defs>
</svg>
