<svg width="192" height="41" viewBox="0 0 192 41" fill="none" xmlns="http://www.w3.org/2000/svg">
<path d="M67.6035 24.836L68.5535 26.286C67.5868 27.536 66.1452 28.161 64.2285 28.161C62.4285 28.161 60.9702 27.6276 59.8535 26.561C58.7535 25.4943 58.2035 24.0693 58.2035 22.286C58.2035 20.636 58.7452 19.2443 59.8285 18.111C60.9118 16.9776 62.2702 16.411 63.9035 16.411C65.8702 16.411 67.3452 16.9026 68.3285 17.886L67.4035 19.461C66.5368 18.6776 65.4618 18.286 64.1785 18.286C63.1285 18.286 62.2202 18.6693 61.4535 19.436C60.7035 20.186 60.3285 21.136 60.3285 22.286C60.3285 23.5026 60.7118 24.4693 61.4785 25.186C62.2618 25.9193 63.2285 26.286 64.3785 26.286C65.6785 26.286 66.7535 25.8026 67.6035 24.836ZM73.1605 27.911H71.1605V10.411H73.1605V17.961C74.1605 16.961 75.3855 16.461 76.8355 16.461C79.9522 16.461 81.5105 18.1276 81.5105 21.461V27.911H79.5105V21.736C79.5105 19.4693 78.4605 18.336 76.3605 18.336C75.7772 18.336 75.1855 18.4693 74.5855 18.736C74.0022 19.0026 73.5272 19.3443 73.1605 19.761V27.911ZM85.4812 19.036L84.9562 17.436C86.0729 16.7526 87.3229 16.411 88.7062 16.411C90.2229 16.411 91.3229 16.786 92.0062 17.536C92.6896 18.286 93.0312 19.4443 93.0312 21.011V27.911H91.1312V26.461C90.2479 27.5443 89.0479 28.086 87.5312 28.086C86.4979 28.086 85.6646 27.7776 85.0312 27.161C84.3979 26.5276 84.0812 25.6776 84.0812 24.611C84.0812 23.511 84.4729 22.6443 85.2562 22.011C86.0396 21.361 87.0646 21.036 88.3312 21.036C89.5146 21.036 90.4479 21.2776 91.1312 21.761C91.1312 20.4943 90.9562 19.586 90.6062 19.036C90.2562 18.486 89.5812 18.211 88.5812 18.211C87.5646 18.211 86.5312 18.486 85.4812 19.036ZM88.2312 26.286C89.3479 26.286 90.3146 25.8026 91.1312 24.836V23.411C90.4312 22.911 89.5896 22.661 88.6062 22.661C87.9229 22.661 87.3479 22.8276 86.8812 23.161C86.4312 23.4776 86.2062 23.9276 86.2062 24.511C86.2062 25.061 86.3812 25.4943 86.7312 25.811C87.0979 26.1276 87.5979 26.286 88.2312 26.286ZM98.3803 27.911H96.3803V16.661H98.3803V18.036C98.7969 17.5693 99.3386 17.1943 100.005 16.911C100.689 16.611 101.372 16.461 102.055 16.461C105.172 16.461 106.73 18.111 106.73 21.411V27.911H104.73V21.786C104.73 19.486 103.672 18.336 101.555 18.336C100.289 18.336 99.2303 18.8193 98.3803 19.786V27.911ZM108.551 29.536C108.551 28.6693 108.868 27.9443 109.501 27.361C110.134 26.7776 111.018 26.361 112.151 26.111C111.968 25.8776 111.876 25.5693 111.876 25.186C111.876 24.8026 111.976 24.486 112.176 24.236C111.376 23.9193 110.751 23.436 110.301 22.786C109.868 22.136 109.651 21.386 109.651 20.536C109.651 19.3693 110.068 18.3943 110.901 17.611C111.751 16.811 112.868 16.411 114.251 16.411C115.318 16.411 116.268 16.686 117.101 17.236L120.401 16.436L120.451 18.061L118.326 18.586C118.676 19.1693 118.851 19.8193 118.851 20.536C118.851 21.686 118.426 22.6526 117.576 23.436C116.743 24.2026 115.634 24.586 114.251 24.586C113.868 24.586 113.618 24.5776 113.501 24.561C113.418 24.761 113.376 24.9693 113.376 25.186C113.376 25.486 113.451 25.736 113.601 25.936C113.634 25.936 113.734 25.936 113.901 25.936C114.084 25.9193 114.209 25.911 114.276 25.911C116.026 25.911 117.418 26.2276 118.451 26.861C119.484 27.4776 120.001 28.3693 120.001 29.536C120.001 30.6693 119.484 31.5443 118.451 32.161C117.418 32.7943 116.026 33.111 114.276 33.111C112.509 33.111 111.109 32.8026 110.076 32.186C109.059 31.586 108.551 30.7026 108.551 29.536ZM118.126 29.536C118.126 28.9193 117.784 28.4276 117.101 28.061C116.418 27.711 115.476 27.536 114.276 27.536C113.076 27.536 112.134 27.711 111.451 28.061C110.768 28.4276 110.426 28.9193 110.426 29.536C110.426 30.1526 110.768 30.6276 111.451 30.961C112.134 31.311 113.076 31.486 114.276 31.486C115.476 31.486 116.418 31.3193 117.101 30.986C117.784 30.6526 118.126 30.1693 118.126 29.536ZM111.526 20.536C111.526 21.236 111.776 21.8193 112.276 22.286C112.793 22.736 113.451 22.961 114.251 22.961C115.051 22.961 115.701 22.736 116.201 22.286C116.718 21.836 116.976 21.2526 116.976 20.536C116.976 19.8193 116.726 19.2276 116.226 18.761C115.709 18.2776 115.051 18.036 114.251 18.036C113.451 18.036 112.793 18.2776 112.276 18.761C111.776 19.2276 111.526 19.8193 111.526 20.536ZM131.329 25.111L131.954 26.686C130.871 27.6693 129.463 28.161 127.729 28.161C125.896 28.161 124.438 27.6276 123.354 26.561C122.254 25.4943 121.704 24.0693 121.704 22.286C121.704 20.6026 122.221 19.2026 123.254 18.086C124.271 16.9693 125.688 16.411 127.504 16.411C129.004 16.411 130.246 16.8943 131.229 17.861C132.229 18.811 132.729 20.0443 132.729 21.561C132.729 22.0443 132.688 22.4943 132.604 22.911H123.954C124.038 23.961 124.429 24.786 125.129 25.386C125.846 25.986 126.763 26.286 127.879 26.286C129.346 26.286 130.496 25.8943 131.329 25.111ZM127.404 18.286C126.421 18.286 125.604 18.561 124.954 19.111C124.321 19.661 123.946 20.386 123.829 21.286H130.654C130.604 20.3526 130.288 19.6193 129.704 19.086C129.138 18.5526 128.371 18.286 127.404 18.286Z" fill="#2F92F6"/>
<path d="M137.443 27.911H135.443V10.411H137.443V17.961C138.443 16.961 139.668 16.461 141.118 16.461C144.234 16.461 145.793 18.1276 145.793 21.461V27.911H143.793V21.736C143.793 19.4693 142.743 18.336 140.643 18.336C140.059 18.336 139.468 18.4693 138.868 18.736C138.284 19.0026 137.809 19.3443 137.443 19.761V27.911ZM158.038 25.111L158.663 26.686C157.58 27.6693 156.172 28.161 154.438 28.161C152.605 28.161 151.147 27.6276 150.063 26.561C148.963 25.4943 148.413 24.0693 148.413 22.286C148.413 20.6026 148.93 19.2026 149.963 18.086C150.98 16.9693 152.397 16.411 154.213 16.411C155.713 16.411 156.955 16.8943 157.938 17.861C158.938 18.811 159.438 20.0443 159.438 21.561C159.438 22.0443 159.397 22.4943 159.313 22.911H150.663C150.747 23.961 151.138 24.786 151.838 25.386C152.555 25.986 153.472 26.286 154.588 26.286C156.055 26.286 157.205 25.8943 158.038 25.111ZM154.113 18.286C153.13 18.286 152.313 18.561 151.663 19.111C151.03 19.661 150.655 20.386 150.538 21.286H157.363C157.313 20.3526 156.997 19.6193 156.413 19.086C155.847 18.5526 155.08 18.286 154.113 18.286ZM164.152 27.911H162.152V16.661H164.152V17.986C164.818 16.9693 165.76 16.461 166.977 16.461C167.76 16.461 168.343 16.6026 168.727 16.886L168.027 18.761C167.543 18.4776 167.035 18.336 166.502 18.336C165.485 18.336 164.702 18.8693 164.152 19.936V27.911ZM171.548 26.511C170.448 25.3776 169.898 23.9693 169.898 22.286C169.898 20.586 170.448 19.186 171.548 18.086C172.665 16.9693 174.115 16.411 175.898 16.411C177.681 16.411 179.123 16.9693 180.223 18.086C181.34 19.186 181.898 20.586 181.898 22.286C181.898 23.986 181.34 25.3943 180.223 26.511C179.123 27.611 177.681 28.161 175.898 28.161C174.131 28.161 172.681 27.611 171.548 26.511ZM173.123 19.411C172.39 20.1443 172.023 21.1026 172.023 22.286C172.023 23.4693 172.381 24.4276 173.098 25.161C173.831 25.911 174.765 26.286 175.898 26.286C177.031 26.286 177.956 25.9193 178.673 25.186C179.406 24.436 179.773 23.4693 179.773 22.286C179.773 21.136 179.406 20.1776 178.673 19.411C177.956 18.661 177.031 18.286 175.898 18.286C174.765 18.286 173.84 18.661 173.123 19.411Z" fill="#18258F"/>
<path d="M34.5483 24.7849L24.9082 37.1242L23.8311 28.5105L17.4761 27.8235L34.5483 24.7849Z" fill="#03578C"/>
<path d="M24.7736 22.354L17.4761 27.8235L18.9841 13.5289L24.7736 22.354Z" fill="#03578C"/>
<path d="M24.612 22.3276L18.9841 13.5289L24.3158 14.7443L24.612 22.3276Z" fill="#0099F7"/>
<path d="M42.7613 27.1629H42.7344L41.2534 37.1506H24.9082V37.1242L34.5483 24.7849L42.7613 27.1629Z" fill="#28ADFF"/>
<path d="M17.4761 27.8235L24.6658 22.4333L24.612 22.3276L34.5483 24.7849L17.4761 27.8235Z" fill="#0099F7"/>
<path d="M28.678 19.5532L24.7735 22.354L24.6119 22.3276L24.3157 14.7443L34.4137 17.0959L34.4406 17.0695L35.3023 20.1609L28.678 19.5532Z" fill="#0474BA"/>
<path d="M48.497 26.608L42.7614 27.1628L34.5484 24.7848L35.0331 24.6263L28.7051 19.5531L42.3036 24.5206L44.9695 25.5246L45.5619 24.9169L44.6463 20.795L41.5227 20.7422L36.3526 20.2666L40.3109 18.6812L44.9695 20.3458L45.3195 12.789L45.6426 12.8947L48.497 26.608Z" fill="#0474BA"/>
<path d="M45.5618 24.917L44.9694 25.5248L42.3036 24.5207L41.5226 20.7423L44.6463 20.7951L45.5618 24.917Z" fill="#03578C"/>
<path d="M34.7637 3.91107L31.667 4.67732L28.0318 6.31552L28.0857 4.17529L33.929 0.766785L34.7637 3.91107Z" fill="#49484D"/>
<path d="M36.3255 9.80336L27.951 9.75051L28.0318 6.31558L31.667 4.67739L34.7637 3.91113L36.3255 9.80336Z" fill="#FFB536"/>
<path d="M18.9841 13.6081L7.29743 37.3356H7.2705L0 39.2116L18.9841 13.6081Z" fill="#FFC767"/>
<path d="M19.0379 13.5289L17.4761 27.8235L10.421 39.2116L7.29742 37.3356L18.9841 13.6082L19.0379 13.5289Z" fill="#FFB536"/>
<path d="M21.8654 28.2991L17.9071 38.2075L10.4211 39.2116L17.4762 27.8235L21.8654 28.2991Z" fill="#FFC767"/>
<path d="M24.9082 37.1506L24.1004 40.5591L17.9608 38.2075H17.907L21.8654 28.2991L23.8311 28.5105L24.9082 37.1506Z" fill="#FFB536"/>
<path d="M34.4137 17.0959L19.038 13.5289L27.9511 9.75046H28.0857L33.202 15.6691L34.4137 17.0959Z" fill="#FFB536"/>
<path d="M45.0502 12.7098H45.0233L34.4137 17.0959L33.202 15.6691L38.022 10.3053L45.0502 12.7098Z" fill="#FFC767"/>
<path d="M38.022 10.3053L33.2019 15.6691L27.951 9.75046L36.3255 9.8033L37.9951 10.3053H38.022Z" fill="#03578C"/>
<path d="M45.0232 12.7097L43.4884 15.9069L40.3378 18.6812H40.3109L36.3525 20.2666L35.3023 20.1609L34.4137 17.0959L44.9963 12.7362L45.0232 12.7097Z" fill="#0099F7"/>
<path d="M35.033 24.6264L34.5483 24.7849L24.8005 22.3805L24.7736 22.354L28.705 19.5533L35.033 24.6264Z" fill="#03578C"/>
<path d="M42.3036 24.5207L28.705 19.5533H28.6781L35.3023 20.161L36.3525 20.2667L41.5226 20.7423L42.3036 24.5207Z" fill="#0099F7"/>
<path d="M45.3194 12.789L44.9694 20.3459L40.3109 18.6812H40.3378L43.4883 15.9069L45.0232 12.7097H45.0501L45.3194 12.789Z" fill="#03578C"/>
</svg>
